<svg xmlns="http://www.w3.org/2000/svg" width="46" height="42" viewBox="0 0 46 42" fill="none"><path d="M2.73145 31.0065L12.6889 24.0796L23.5122 31.8724L36.9331 24.0796V37.9334H2.73145V31.0065Z" fill="#156BEC"></path><path d="M11.1398 2.05074C10.7254 2.11838 9.90522 2.4397 9.55008 2.68491C8.65378 3.30218 8.04496 4.1393 7.79975 5.08634C7.69828 5.49221 7.16557 9.45794 7.16557 9.82999C7.16557 9.91455 6.96263 9.93992 6.42992 9.93992C6.01559 9.93992 5.39832 9.9822 5.05164 10.0245C3.45351 10.2274 2.15133 11.4281 1.63553 13.1446C1.51715 13.559 1.50024 14.7766 1.50024 25.1518C1.50024 37.6239 1.47487 36.9729 1.94839 37.8945C2.38809 38.7486 3.18293 39.4335 4.18916 39.814L4.67113 40H19.9337C34.5114 40 35.2216 39.9915 35.7036 39.8478C36.5323 39.5857 37.0227 39.2897 37.6484 38.6555C38.5278 37.7677 38.8745 36.9221 38.8745 35.6538V35.0872L39.3058 34.9773C40.0499 34.7828 40.6925 34.4023 41.2252 33.8273C41.8002 33.2185 42.1215 32.6012 42.2991 31.781C42.3667 31.4597 42.9586 26.4708 43.6182 20.6787C44.988 8.53627 44.9711 8.92523 44.3876 7.71606C43.8127 6.53226 42.6711 5.6275 41.4282 5.37383C40.8701 5.25545 11.9684 1.99154 11.6302 2C11.478 2.00845 11.2581 2.03382 11.1398 2.05074ZM26.5038 5.83889C34.3507 6.74366 40.9377 7.53004 41.1407 7.58077C41.5888 7.70761 42.2314 8.26569 42.4344 8.71384C42.5274 8.90832 42.595 9.25501 42.595 9.51713C42.595 10.1006 40.1767 31.1807 40.0583 31.6119C39.9569 31.9755 39.551 32.466 39.2043 32.652C39.0775 32.7112 38.9506 32.7704 38.9168 32.7704C38.8914 32.7704 38.8745 28.551 38.8745 23.4014C38.8745 13.0516 38.8999 13.6097 38.3249 12.4344C37.8345 11.4197 36.8621 10.5995 35.6529 10.1767L35.1117 9.99065L22.2421 9.96529C10.7593 9.93992 9.36406 9.92301 9.36406 9.80463C9.36406 9.73698 9.46553 8.81531 9.58391 7.75834C9.82912 5.58522 9.95596 5.17089 10.5309 4.69737C10.9453 4.34223 11.3089 4.20694 11.8331 4.19849C12.0445 4.19003 18.6484 4.93414 26.5038 5.83889ZM35.247 12.3752C35.7966 12.6458 36.304 13.1869 36.5069 13.7196C36.6676 14.1509 36.676 14.3876 36.676 18.6831V23.19L30.7655 26.6315C24.2715 30.4112 24.373 30.3605 23.4006 30.1575C23.1384 30.1068 22.7917 29.98 22.6226 29.87C22.4535 29.7686 20.9738 28.5087 19.3503 27.0797C17.7183 25.6422 16.2216 24.3485 16.0272 24.2047C14.7757 23.3 12.7802 23.1308 11.3342 23.8158C11.0383 23.9595 9.18649 25.2448 7.20785 26.6822L3.60571 29.3035L3.63108 21.5834L3.65645 13.8718L3.85938 13.4237C4.11305 12.8656 4.68804 12.3413 5.16156 12.2314C5.38141 12.1891 11.275 12.1638 20.1874 12.1638L34.8581 12.1807L35.247 12.3752ZM14.3107 25.7859C14.5981 25.9212 15.7143 26.8429 17.7944 28.6778C19.4771 30.1575 21.0668 31.5105 21.3374 31.6627C22.6311 32.449 24.3391 32.6097 25.6836 32.0601C25.9373 31.9586 28.4909 30.5127 31.3574 28.8554C34.2239 27.198 36.5915 25.8367 36.6253 25.8367C36.6507 25.8367 36.676 28.1704 36.676 31.0116C36.676 36.9052 36.7099 36.5754 35.9573 37.235C35.2132 37.8945 36.4308 37.8438 19.9422 37.8438C5.26303 37.8438 5.17848 37.8353 4.79797 37.6662C4.32445 37.4548 4.07078 37.2181 3.84247 36.7868C3.6649 36.4655 3.65645 36.3133 3.63108 34.2501L3.60571 32.0516L7.63909 29.0921C12.4927 25.5323 12.1291 25.7775 12.6787 25.6253C13.2199 25.4731 13.7441 25.5238 14.3107 25.7859Z" fill="#313141"></path><path d="M22.0479 15.6308C20.5935 16.1297 19.5535 17.212 19.1307 18.6833C19.0208 19.0638 18.9954 19.402 19.0208 20.0954C19.0546 20.9494 19.0799 21.0424 19.4097 21.7358C20.7626 24.5515 24.3732 25.1857 26.5633 22.9957C28.3051 21.2538 28.3136 18.4634 26.5802 16.7469C25.6416 15.8083 24.7284 15.4363 23.4093 15.4363C22.792 15.4363 22.4622 15.487 22.0479 15.6308ZM24.2379 17.7785C25.371 18.1844 25.9967 19.605 25.5063 20.6788C25.2357 21.2876 24.9567 21.5751 24.4071 21.8542C23.7813 22.167 23.274 22.1924 22.6144 21.9472C21.1347 21.3891 20.7034 19.4105 21.8281 18.2859C22.513 17.6009 23.2824 17.4403 24.2379 17.7785Z" fill="#313141"></path><path d="M16 33C16 34.6562 14.6569 36 13 36C11.3431 36 10 34.6562 10 33C10 31.5414 12.2111 29.5682 12.8407 28.1576C12.8862 28.0555 13.1562 28.0425 13.2071 28.142C13.9297 29.5536 16 31.536 16 33Z" fill="white"></path></svg>