<svg xmlns="http://www.w3.org/2000/svg" width="46" height="42" viewBox="0 0 46 42" fill="none"><g clip-path="url(#clip0_78_65)"><path d="M3.97931 0.0202293C3.88308 0.0464745 3.71687 0.0814629 3.60314 0.107708C3.32321 0.168945 2.62337 0.825039 2.45716 1.19245C2.33469 1.46364 2.3172 2.15473 2.29095 6.7124L2.26471 11.9262L1.77482 12.0749C1.08374 12.2936 0.331415 13.0372 0.13896 13.702C-0.280941 15.1192 0.270179 16.4401 1.52988 17.035C1.81856 17.1749 2.10725 17.2887 2.16848 17.2887C2.22972 17.2887 2.40568 17.3199 2.40568 17.3199H3.84909C3.84909 17.3199 3.89183 17.1312 4.37296 16.6938C5.17777 15.9677 5.28275 15.7053 5.2915 14.4543V13.4221L5.70265 13.0547C5.92135 12.8622 6.72616 12.1536 7.46973 11.48L8.84316 10.2728L9.25431 10.3865C9.48176 10.4478 10.0329 10.509 10.4878 10.509H11.3101L12.8147 11.69L14.3281 12.871L14.3194 13.7457C14.3106 15.0667 14.6868 15.749 15.7015 16.2477C16.2352 16.5101 16.3052 16.5188 17.075 16.4839C18.0023 16.4401 18.3872 16.2826 18.912 15.7403C19.4457 15.1892 19.5856 14.7605 19.5944 13.702L19.6031 12.7835L21.5714 11.1651C22.6474 10.2728 23.6097 9.53799 23.7059 9.52049C23.7934 9.503 24.0733 9.55548 24.327 9.62547C26.0154 10.1328 27.52 9.24931 27.8262 7.57845C28.0799 6.18753 27.3101 4.89283 26.0241 4.56041C24.9131 4.27173 24.0383 4.47293 23.321 5.17277C22.7611 5.73263 22.5687 6.24876 22.5599 7.27227V8.14707L20.4954 9.83542L18.4396 11.5238L18.081 11.3838C17.6086 11.1913 16.4451 11.1913 15.8852 11.3838L15.4653 11.5325L15.0542 11.2438C14.2406 10.6665 12.701 9.41552 12.6573 9.29305C12.631 9.23181 12.666 9.00436 12.7447 8.79441C12.9459 8.2083 12.8672 7.12356 12.596 6.58118C12.3248 6.04756 11.7475 5.53143 11.2226 5.35647C10.7065 5.18151 9.68296 5.17276 9.17558 5.34772C8.64196 5.53143 8.17832 5.92509 7.87214 6.47621C7.6272 6.89611 7.6097 6.97484 7.6097 7.94586V8.96937L6.62993 9.88791C6.08756 10.3865 5.26525 11.1214 4.81036 11.5063L3.97931 12.2149L3.90932 10.7977C3.87433 10.0104 3.85683 7.73591 3.86558 5.74138C3.89183 1.83105 3.90057 1.77856 4.35547 1.65609C4.48669 1.61235 13.1034 1.58611 23.5047 1.58611C38.105 1.58611 42.444 1.61235 42.5227 1.69109C42.584 1.75232 42.6627 1.98851 42.7064 2.21596C42.8202 2.79333 42.8989 24.5844 42.7939 27.6987C42.7502 29.3083 42.6802 30.2619 42.6189 30.3843C42.549 30.5068 42.3828 30.603 42.1816 30.6468C42.0066 30.6818 36.9065 30.7168 30.8617 30.7168L3.84909 30.7915V31.2727L4.15647 32.3176H31.2991L42.7327 32.2914L43.1263 32.1077C43.345 32.0027 43.6687 31.7665 43.8524 31.5741C44.1148 31.2941 44.2023 31.1192 44.2898 30.6643C44.3685 30.2356 44.3948 26.7014 44.3948 15.8453C44.3948 2.76708 44.386 1.55987 44.2461 1.27118C44.0361 0.798796 43.5025 0.247677 43.1438 0.125206C42.8901 0.0377274 38.6824 0.0114822 23.4872 0.00273514C12.8585 -0.00601196 4.07553 0.00273514 3.97931 0.0202293ZM25.7004 6.26626C26.0416 6.47621 26.2778 6.96609 26.1991 7.32476C26.1203 7.69217 25.6042 8.10332 25.2193 8.10332C24.9744 8.10332 24.8344 8.03334 24.572 7.76216C24.1433 7.33351 24.1083 6.9486 24.467 6.5287C24.8519 6.06506 25.2368 5.98632 25.7004 6.26626ZM10.8814 7.22853C11.0914 7.45598 11.1964 7.66593 11.1964 7.83214C11.1964 8.18206 10.8552 8.6457 10.479 8.78566C10.1903 8.89939 10.1204 8.89064 9.82293 8.75067C9.09685 8.39201 8.98313 7.49972 9.61298 7.07982C9.78794 6.95735 10.0416 6.87861 10.2341 6.87861C10.5053 6.87861 10.619 6.93985 10.8814 7.22853ZM17.6348 13.2121C17.8798 13.4571 17.9323 13.5795 17.9323 13.877C17.9323 14.6555 17.005 15.1279 16.4014 14.6468C15.6141 14.0257 15.964 12.9147 16.9438 12.9147C17.2762 12.9147 17.3811 12.9584 17.6348 13.2121ZM3.33196 13.9557C3.60314 14.2269 3.67313 14.3581 3.67313 14.6205C3.67313 14.883 3.60314 15.0142 3.33196 15.2854C2.96454 15.6528 2.67586 15.714 2.27346 15.5128C1.99352 15.3729 1.6611 14.8742 1.6611 14.603C1.6611 14.1044 2.18598 13.6233 2.74585 13.6145C2.9208 13.6145 3.09576 13.7195 3.33196 13.9557Z" fill="#313141"></path><path d="M3.36589 17.3201H3.84702L3.93038 24.9967C3.94793 29.3148 3.98304 30.7629 4.06203 30.8419C4.12347 30.9033 4.39144 30.9823 4.61963 31.0262H5.25488L4.81133 32.2353C3.36792 32.7164 2.61392 31.8248 2.49105 31.465C2.42084 31.228 2.37695 29.4903 2.3594 25.1986L2.40361 17.3201H3.36589Z" fill="#313141"></path><rect x="3" y="24" width="28" height="8" fill="#313141"></rect><circle cx="36" cy="32" r="9" fill="white"></circle><path d="M28.4598 25.5526L28.0284 26.1651C27.1485 27.3923 26.5441 28.9716 26.3566 30.5667C26.2772 31.2389 26.1718 31.6517 26.37 33.1609C26.583 34.7828 26.7446 34.8655 27.0639 35.6177C27.7147 37.1468 28.5635 38.2353 29.9538 39.3497C32.1511 41.0993 34.1385 41.7207 36.9085 41.5158C38.9702 41.3597 41.1814 40.4606 42.5377 39.2325C43.4991 38.3563 44.5343 36.9675 45.1171 35.7617L45.4224 35.1304L45.8908 33.322C45.8862 33.2873 45.9071 32.9757 45.9332 32.637C46.0477 31.1574 45.7239 29.1618 45.1612 27.8328C44.1756 25.5006 42.0765 23.4911 39.6129 22.5352C38.0977 21.9489 36.6765 21.8091 34.7597 22.0608C33.0857 22.2806 32.2986 22.6141 30.8579 23.5356L29.5129 24.5151L28.4598 25.5526ZM34.8089 27.5423L35.2934 31.299L32.1812 33.534C30.4636 34.7654 29.0418 35.7638 29.0211 35.7401C28.9928 35.7261 28.8344 35.394 28.6704 35.0185C28.2601 34.1107 27.9148 32.1532 27.9924 31.1989C28.1495 29.2372 29.1991 27.0172 30.5565 25.7978C31.4241 25.0134 33.3142 23.9534 34.0405 23.8404L34.3169 23.7953L34.8089 27.5423ZM36.933 23.6282C40.0742 23.9657 42.8965 26.242 43.8865 29.2795L44.1032 29.9216L40.469 30.3988L36.8348 30.876L36.3644 27.2939C36.1048 25.3163 35.9155 23.6736 35.9468 23.643C36.0135 23.5461 36.11 23.5422 36.933 23.6282ZM44.2807 31.9452C44.2467 32.7614 43.919 34.1632 43.581 34.9487C43.196 35.8463 42.1416 37.2906 41.4195 37.9059C40.8172 38.4262 39.8929 38.9799 39.0401 39.3389C38.1613 39.7013 36.2392 39.9802 35.3856 39.8629C33.7328 39.6388 32.4383 39.1206 31.2129 38.1874C30.7223 37.8107 30.2663 37.4294 30.2006 37.3321C30.0825 37.1712 30.1774 37.0882 32.3941 35.4913C33.6665 34.5654 35.1086 33.5202 35.5914 33.1656L36.476 32.5113L40.3878 31.9976L44.2995 31.484L44.2807 31.9452Z" fill="#156BEC"></path></g><defs><clipPath id="clip0_78_65"><rect width="46" height="42" fill="white"></rect></clipPath></defs></svg>