<svg xmlns="http://www.w3.org/2000/svg" width="46" height="42" viewBox="0 0 46 42" fill="none"><path d="M0 16.5V31C0 32.1046 0.895431 33 2 33H23H44C45.1046 33 46 32.1046 46 31V16.5V2C46 0.895432 45.1046 0 44 0H23H2C0.89543 0 0 0.895432 0 2V16.5ZM44 13.5V23C44 24.1046 43.1046 25 42 25H23H4C2.89543 25 2 24.1046 2 23V13.5V4C2 2.89543 2.89543 2 4 2H23H42C43.1046 2 44 2.89543 44 4V13.5Z" fill="#313141"></path><path d="M21.7001 12.7C18.7001 21.4 18.4001 23 20.3001 23C21.0001 23 22.8001 19.5 24.3001 15.2C27.3001 6.6 27.6001 5 25.7001 5C25.0001 5 23.2001 8.5 21.7001 12.7Z" fill="#156BEC"></path><path d="M12.6001 10.5001C10.6001 13.5001 10.6001 14.5001 12.6001 17.5001C15.4001 21.8001 18.5001 20.3001 15.8001 16.0001C14.8001 14.4001 14.8001 13.6001 15.8001 12.0001C18.5001 7.70008 15.4001 6.20008 12.6001 10.5001Z" fill="#156BEC"></path><path d="M29 8.8999C29 9.4999 29.5 10.8999 30.2 11.9999C31.2 13.4999 31.1 14.3999 30 16.3999C29.3 17.7999 28.9 19.2999 29.3 19.5999C30.4 20.6999 32.5 19.2999 34 16.5999C35.2 14.1999 35.2 13.5999 33.8 11.1999C32.1 8.3999 29 6.9999 29 8.8999Z" fill="#156BEC"></path><path d="M17 36C17 36.5 15.7 37 14 37C11.5 37 11 37.4 11 39.5V40C11 41.1046 11.8954 42 13 42H23H33C34.1046 42 35 41.1046 35 40V39.5C35 37.4 34.5 37 32 37C30.4 37 29 36.5 29 36C29 35.4 26.3 35 23 35C19.7 35 17 35.4 17 36Z" fill="#313141"></path></svg>