<svg xmlns="http://www.w3.org/2000/svg" width="46" height="42" viewBox="0 0 46 42" fill="none"><g clip-path="url(#clip0_78_259)"><path d="M5.16758 0.150177C4.0276 0.514339 3.03802 1.31392 2.53136 2.27974C1.95345 3.38015 2.00095 1.98682 2.00095 18.9996C2.00095 32.8061 2.01678 34.3736 2.12761 34.7615C2.46803 35.9094 3.29927 36.9544 4.28093 37.469C5.37342 38.039 4.40759 37.9994 17.2008 37.9994C29.994 37.9994 29.0282 38.039 30.1207 37.469C31.1024 36.9544 31.9336 35.9094 32.274 34.7615C32.3848 34.3736 32.4007 32.8061 32.4007 18.9996C32.4007 1.99474 32.4403 3.38015 31.8782 2.28766C31.3715 1.32183 30.4611 0.569756 29.3686 0.197678L28.767 -0.000236511L17.185 0.00767899C6.33132 0.00767899 5.57925 0.0155945 5.16758 0.150177ZM28.3236 1.34558C29.0757 1.45641 29.6299 1.73349 30.1524 2.24807C30.6669 2.77057 30.944 3.32473 31.0548 4.07681C31.1578 4.8368 31.1578 33.1624 31.0548 33.9224C30.944 34.6744 30.6669 35.2286 30.1524 35.7511C29.6299 36.2657 29.0757 36.5428 28.3236 36.6536C27.5715 36.7565 6.83007 36.7565 6.07799 36.6536C5.32592 36.5428 4.77175 36.2657 4.24926 35.7511C3.73468 35.2286 3.4576 34.6744 3.34677 33.9224C3.24385 33.1624 3.24385 4.8368 3.34677 4.07681C3.4576 3.32473 3.73468 2.77057 4.24926 2.24807C4.75592 1.74933 5.34175 1.4485 6.00674 1.3535C6.68757 1.2585 27.6428 1.25058 28.3236 1.34558Z" fill="#313141"></path><path d="M5.60243 2.68332C5.42827 2.76249 5.17494 2.95249 5.03244 3.09499C4.53369 3.61748 4.53369 3.64123 4.53369 6.98204C4.53369 10.3624 4.54161 10.3703 5.09577 10.9008C5.66576 11.4391 4.78702 11.3995 17.2002 11.3995C29.6135 11.3995 28.7347 11.4391 29.3047 10.9008C29.8589 10.3703 29.8668 10.3624 29.8668 6.9662C29.8668 3.56998 29.8589 3.56207 29.3047 3.03166C28.7347 2.49333 29.6214 2.53291 17.1844 2.53291C6.37826 2.53291 5.90326 2.54083 5.60243 2.68332ZM28.1568 3.9104C28.3389 3.98165 28.4497 4.1004 28.5131 4.27456C28.6318 4.63081 28.6318 9.3016 28.5131 9.65785C28.331 10.1566 28.9643 10.1328 17.2161 10.1328C9.4499 10.1328 6.46534 10.1091 6.27534 10.0458C5.8241 9.88743 5.80035 9.72118 5.80035 6.98204C5.80035 4.28248 5.8241 4.08456 6.22784 3.9104C6.59992 3.75207 27.7689 3.74415 28.1568 3.9104Z" fill="#313141"></path><path d="M25.2359 4.5838C24.848 4.76588 24.4522 5.16962 24.2938 5.55754C24.0959 6.0167 24.1197 8.00376 24.3176 8.43126C24.6342 9.11209 25.2676 9.5 26.0671 9.5C26.8667 9.5 27.5001 9.11209 27.8167 8.43126C28.0305 7.96418 28.0305 5.9692 27.8167 5.50212C27.6346 5.11421 27.2309 4.71838 26.843 4.56005C26.4313 4.38588 25.6317 4.40171 25.2359 4.5838ZM26.3838 5.85837C26.5896 5.9692 26.7005 6.35711 26.7005 6.98252C26.7005 7.90085 26.4313 8.26501 25.8613 8.12251C25.5842 8.05126 25.4338 7.64752 25.4338 6.97461C25.4338 6.37295 25.5288 6.03253 25.7267 5.8742C25.8851 5.76337 26.178 5.74753 26.3838 5.85837Z" fill="#313141"></path><path d="M5.60243 14.0837C5.42827 14.1629 5.17494 14.3529 5.03244 14.4954C4.56536 14.9862 4.53369 15.1683 4.53369 17.1C4.53369 19.0316 4.56536 19.2137 5.03244 19.7045C5.54702 20.2508 5.64201 20.2666 8.33366 20.2666C11.0253 20.2666 11.1203 20.2508 11.6349 19.7045C12.102 19.2137 12.1336 19.0316 12.1336 17.0841C12.1336 15.1129 12.094 14.9229 11.5715 14.4321C11.057 13.9492 10.962 13.9333 8.31782 13.9333C6.14868 13.9333 5.88743 13.9492 5.60243 14.0837ZM10.392 15.2871C10.7878 15.4296 10.867 15.7146 10.867 17.0841C10.867 18.4616 10.8036 18.7308 10.4236 18.8891C10.0436 19.0474 6.62367 19.0474 6.24368 18.8891C5.8716 18.7308 5.80035 18.4616 5.80035 17.1C5.80035 15.7621 5.8716 15.4691 6.22784 15.3108C6.54451 15.1762 9.99614 15.1525 10.392 15.2871Z" fill="#313141"></path><path d="M14.4691 14.0837C14.295 14.1629 14.0416 14.3529 13.8991 14.4954C13.4321 14.9862 13.4004 15.1683 13.4004 17.1C13.4004 19.0316 13.4321 19.2137 13.8991 19.7045C14.4137 20.2508 14.5087 20.2666 17.2004 20.2666C19.892 20.2666 19.987 20.2508 20.5016 19.7045C20.9687 19.2137 21.0003 19.0316 21.0003 17.0841C21.0003 15.1129 20.9607 14.9229 20.4382 14.4321C19.9237 13.9492 19.8287 13.9333 17.1845 13.9333C15.0154 13.9333 14.7541 13.9492 14.4691 14.0837ZM19.2587 15.2871C19.6545 15.4296 19.7337 15.7146 19.7337 17.0841C19.7337 18.4616 19.6703 18.7308 19.2903 18.8891C18.9103 19.0474 15.4904 19.0474 15.1104 18.8891C14.7383 18.7308 14.667 18.4616 14.667 17.1C14.667 15.7621 14.7383 15.4691 15.0945 15.3108C15.4112 15.1762 18.8628 15.1525 19.2587 15.2871Z" fill="#313141"></path><path d="M23.3353 14.0837C23.1612 14.1629 22.9078 14.3529 22.7653 14.4954C22.2983 14.9862 22.2666 15.1683 22.2666 17.1C22.2666 19.0316 22.2983 19.2137 22.7653 19.7045C23.2799 20.2508 23.3749 20.2666 26.0666 20.2666C28.7582 20.2666 28.8532 20.2508 29.3678 19.7045C29.8349 19.2137 29.8665 19.0316 29.8665 17.0841C29.8665 15.1129 29.8269 14.9229 29.3045 14.4321C28.7899 13.9492 28.6949 13.9333 26.0507 13.9333C23.8816 13.9333 23.6203 13.9492 23.3353 14.0837ZM28.1249 15.2871C28.5207 15.4296 28.5999 15.7146 28.5999 17.0841C28.5999 18.4616 28.5365 18.7308 28.1565 18.8891C27.7766 19.0474 24.3566 19.0474 23.9766 18.8891C23.6045 18.7308 23.5333 18.4616 23.5333 17.1C23.5333 15.7621 23.6045 15.4691 23.9608 15.3108C24.2774 15.1762 27.7291 15.1525 28.1249 15.2871Z" fill="#313141"></path><path d="M5.60243 21.6836C5.42827 21.7628 5.17494 21.9528 5.03244 22.0953C4.56536 22.5861 4.53369 22.7682 4.53369 24.6998C4.53369 26.6315 4.56536 26.8135 5.03244 27.3044C5.54702 27.8506 5.64201 27.8665 8.33366 27.8665C11.0253 27.8665 11.1203 27.8506 11.6349 27.3044C12.102 26.8135 12.1336 26.6315 12.1336 24.684C12.1336 22.7128 12.094 22.5228 11.5715 22.0319C11.057 21.549 10.962 21.5332 8.31782 21.5332C6.14868 21.5332 5.88743 21.549 5.60243 21.6836ZM10.392 22.8869C10.7878 23.0294 10.867 23.3144 10.867 24.684C10.867 26.0615 10.8036 26.3306 10.4236 26.489C10.0436 26.6473 6.62367 26.6473 6.24368 26.489C5.8716 26.3306 5.80035 26.0615 5.80035 24.6998C5.80035 23.3619 5.8716 23.069 6.22784 22.9107C6.54451 22.7761 9.99614 22.7523 10.392 22.8869Z" fill="#313141"></path><path d="M14.4691 21.6836C14.295 21.7628 14.0416 21.9528 13.8991 22.0953C13.4321 22.5861 13.4004 22.7682 13.4004 24.6998C13.4004 26.6315 13.4321 26.8135 13.8991 27.3044C14.4137 27.8506 14.5087 27.8665 17.2004 27.8665C19.892 27.8665 19.987 27.8506 20.5016 27.3044C20.9687 26.8135 21.0003 26.6315 21.0003 24.684C21.0003 22.7128 20.9607 22.5228 20.4382 22.0319C19.9237 21.549 19.8287 21.5332 17.1845 21.5332C15.0154 21.5332 14.7541 21.549 14.4691 21.6836ZM19.2587 22.8869C19.6545 23.0294 19.7337 23.3144 19.7337 24.684C19.7337 26.0615 19.6703 26.3306 19.2903 26.489C18.9103 26.6473 15.4904 26.6473 15.1104 26.489C14.7383 26.3306 14.667 26.0615 14.667 24.6998C14.667 23.3619 14.7383 23.069 15.0945 22.9107C15.4112 22.7761 18.8628 22.7523 19.2587 22.8869Z" fill="#313141"></path><path d="M23.3355 21.6835C23.1613 21.7627 22.908 21.9527 22.7655 22.0952C22.243 22.6414 22.2668 22.3802 22.2668 28.5155C22.2668 34.7301 22.243 34.4055 22.8288 34.9676C23.3434 35.4505 23.4384 35.4663 26.0667 35.4663C28.695 35.4663 28.79 35.4505 29.3046 34.9676C29.8904 34.4055 29.8667 34.738 29.8667 28.4997C29.8667 22.2614 29.8904 22.5939 29.3046 22.0318C28.79 21.5489 28.695 21.5331 26.0509 21.5331C23.8818 21.5331 23.6205 21.5489 23.3355 21.6835ZM28.125 22.8868C28.608 23.061 28.6 22.9818 28.6 28.4997C28.6 34.0176 28.608 33.9384 28.125 34.1126C27.7688 34.2313 24.3647 34.2313 24.0084 34.1126C23.5255 33.9384 23.5334 34.0176 23.5334 28.5155C23.5334 25.0085 23.5572 23.4568 23.6205 23.2748C23.7709 22.8473 23.9768 22.8077 26.0351 22.7998C27.2067 22.7998 27.9588 22.8314 28.125 22.8868Z" fill="#313141"></path><path d="M5.60243 29.2834C5.42827 29.3626 5.17494 29.5526 5.03244 29.6951C4.56536 30.1859 4.53369 30.368 4.53369 32.2997C4.53369 34.2313 4.56536 34.4134 5.03244 34.9042C5.54702 35.4505 5.64201 35.4663 8.33366 35.4663C11.0253 35.4663 11.1203 35.4505 11.6349 34.9042C12.102 34.4134 12.1336 34.2313 12.1336 32.2838C12.1336 30.3126 12.094 30.1226 11.5715 29.6318C11.057 29.1489 10.962 29.133 8.31782 29.133C6.14868 29.133 5.88743 29.1489 5.60243 29.2834ZM10.392 30.4868C10.7878 30.6293 10.867 30.9143 10.867 32.2838C10.867 33.6613 10.8036 33.9305 10.4236 34.0888C10.0436 34.2472 6.62367 34.2472 6.24368 34.0888C5.8716 33.9305 5.80035 33.6613 5.80035 32.2997C5.80035 30.9618 5.8716 30.6689 6.22784 30.5105C6.54451 30.3759 9.99614 30.3522 10.392 30.4868Z" fill="#313141"></path><path d="M14.4691 29.2834C14.295 29.3626 14.0416 29.5526 13.8991 29.6951C13.4321 30.1859 13.4004 30.368 13.4004 32.2997C13.4004 34.2313 13.4321 34.4134 13.8991 34.9042C14.4137 35.4505 14.5087 35.4663 17.2004 35.4663C19.892 35.4663 19.987 35.4505 20.5016 34.9042C20.9687 34.4134 21.0003 34.2313 21.0003 32.2838C21.0003 30.3126 20.9607 30.1226 20.4382 29.6318C19.9237 29.1489 19.8287 29.133 17.1845 29.133C15.0154 29.133 14.7541 29.1489 14.4691 29.2834ZM19.2587 30.4868C19.6545 30.6293 19.7337 30.9143 19.7337 32.2838C19.7337 33.6613 19.6703 33.9305 19.2903 34.0888C18.9103 34.2472 15.4904 34.2472 15.1104 34.0888C14.7383 33.9305 14.667 33.6613 14.667 32.2997C14.667 30.9618 14.7383 30.6689 15.0945 30.5105C15.4112 30.3759 18.8628 30.3522 19.2587 30.4868Z" fill="#313141"></path><rect x="2.67857" y="0.678572" width="29.4048" height="36.6429" rx="1.13095" stroke="#313141" stroke-width="1.35714"></rect><circle cx="35.8703" cy="32.1101" r="8.92012" fill="#156BEC"></circle><path d="M33.8252 22.0879C29.4812 23.0055 26.2524 26.5131 25.8226 30.799C25.4858 34.0163 26.5543 36.9316 28.8308 39.1151C30.0736 40.2882 31.0725 40.8806 32.7682 41.4265C34.0691 41.8446 36.3107 41.9607 37.6813 41.6704C40.8288 41.02 43.3841 39.0106 44.7198 36.1301C45.3121 34.8525 45.5444 33.9001 45.6257 32.4599C45.8929 27.7908 42.9311 23.6211 38.4362 22.3086C37.4722 22.0299 34.7311 21.9021 33.8252 22.0879ZM37.5651 24.2947C39.9461 24.8987 41.8161 26.4551 42.873 28.7199C44.592 32.425 42.9311 37.0593 39.226 38.9061C37.6348 39.6959 35.5906 39.9514 33.9297 39.5565C31.7694 39.0571 29.6671 37.3962 28.7263 35.4449C28.0759 34.1324 27.89 33.3194 27.89 31.9024C27.89 30.4854 28.0875 29.6724 28.7263 28.3599C29.3999 26.9777 30.7821 25.5956 32.1875 24.8987C32.7334 24.6316 33.4883 24.3412 33.8716 24.2483C34.9053 24.0044 36.5082 24.016 37.5651 24.2947Z" fill="#156BEC"></path><path d="M34.6284 26.4443C34.6284 26.7695 34.5703 26.9901 34.489 27.0134C33.3043 27.3502 32.3635 28.0355 31.957 28.8369C31.655 29.4292 31.6434 30.4281 31.9454 31.0205C32.2357 31.5896 33.0023 32.2632 33.676 32.5536C33.9663 32.6814 34.7678 32.8556 35.4414 32.9369C36.7423 33.0995 37.323 33.3202 37.5437 33.7267C37.8689 34.3423 36.3125 35.0043 35.151 34.7488C34.4658 34.5978 33.9547 34.3074 33.8618 34.0287C33.8037 33.8428 33.6527 33.8196 32.7584 33.8196H31.7247V34.1681C31.7247 34.5165 32.0151 35.1901 32.3287 35.5618C32.6423 35.9451 33.3972 36.4213 33.9663 36.6188C34.5703 36.8162 34.5703 36.8278 34.6051 37.3505L34.64 37.8848H35.6853H36.719V37.3737V36.8627L37.3346 36.6536C38.8561 36.1542 39.7389 35.0972 39.7389 33.808C39.7389 33.2505 39.2627 32.3097 38.7981 31.9032C38.1476 31.3573 37.2882 31.0321 36.1731 30.9159C34.7445 30.7533 34.5471 30.7069 34.1638 30.37C33.7457 30.0216 33.734 29.8706 34.0825 29.5454C34.4658 29.1853 34.9536 29.0343 35.7434 29.0343C36.5216 29.046 37.3114 29.3479 37.5553 29.7545C37.6831 29.9519 37.834 29.9867 38.7168 29.9867C39.704 29.9867 39.7389 29.9751 39.7389 29.7196C39.7389 29.2434 39.1233 28.2097 38.6122 27.8264C38.2057 27.5128 37.5437 27.2108 36.87 27.0134C36.7771 26.9901 36.719 26.7695 36.719 26.4443V25.9216H35.6737H34.6284V26.4443Z" fill="white"></path></g><defs><clipPath id="clip0_78_259"><rect width="46" height="42" fill="white"></rect></clipPath></defs></svg>