<svg xmlns="http://www.w3.org/2000/svg" width="46" height="42" viewBox="0 0 46 42" fill="none"><path d="M8.25195 4.57324H37.7246V21.5423L22.9883 33.1528L8.25195 21.0958V4.57324Z" fill="#156BEC"></path><path d="M21.9992 1.09211C21.5282 1.26655 21.2404 1.47587 20.499 2.13873C19.8972 2.67948 18.9692 3.8302 18.9692 4.12674C18.9692 4.56283 20.1153 3.7697 20.5688 3.7697C20.8566 3.7697 21.0049 3.68248 21.6503 3.13301C22.3829 2.51376 22.4004 2.50504 22.8888 2.50504C23.3772 2.50504 23.3947 2.51376 24.1273 3.13301C24.7814 3.69993 24.9123 3.7697 25.2262 3.7697C25.6449 3.7697 27.4538 4.56273 27.4538 4.12664C27.4538 3.89987 25.828 2.66203 25.2699 2.13873C24.3366 1.25783 23.9005 1.03978 23.0196 1.00489C22.5748 0.987451 22.2085 1.02234 21.9992 1.09211Z" fill="#313141"></path><path d="M9.1343 3.54524C8.22723 3.87667 7.56437 4.47847 7.11956 5.38554L6.88408 5.86524L6.85791 11.6827L6.91199 19.7564V20.6495C7.17364 20.9025 8.00744 20.911 8.25165 20.6493C8.43481 20.4575 8.22723 17.439 8.2534 11.9705C8.27956 6.60659 8.28828 6.46704 8.46272 6.08328C8.68076 5.6123 9.22151 5.09772 9.68377 4.94073C9.96286 4.83607 12.2131 4.81862 22.8885 4.81862C33.564 4.81862 35.8142 4.83607 36.0933 4.94073C36.5556 5.09772 37.0963 5.6123 37.3144 6.08328C37.4888 6.46704 37.4975 6.62404 37.5411 12.0315C37.5848 17.4565 37.5499 20.5275 37.7243 20.6496C37.9947 20.8589 38.6924 20.6902 38.9192 20.4547L38.9454 17.4478L38.9192 11.6565L38.893 5.86524L38.6401 5.34193C38.3087 4.67035 37.6458 4.0075 36.9742 3.67607L36.4509 3.42314L23.0194 3.40569C10.0937 3.38825 9.57038 3.38825 9.1343 3.54524Z" fill="#313141"></path><path d="M24.816 8.08053C23.8043 9.07481 22.4175 9.76383 20.7778 10.0953C20.0888 10.2435 19.4347 10.2871 17.8735 10.322C15.2482 10.3831 14.7162 10.5313 13.7132 11.4733C12.8236 12.3019 12.4224 13.27 12.4224 14.5521C12.4224 16.2092 13.2858 17.6134 14.7162 18.3199L15.2133 18.5641V20.6748C15.2133 23.0297 15.2569 23.2128 15.8326 23.7623C16.2425 24.1461 16.6786 24.3118 17.3066 24.3118C17.9345 24.3118 18.3706 24.1461 18.7805 23.7623C19.3562 23.2128 19.3998 23.0209 19.3998 20.7882V18.7909L19.9493 18.8519C21.8157 19.0438 23.6996 19.8811 24.8509 21.0411C25.2783 21.4597 25.3742 21.5208 25.6795 21.5208C25.915 21.5208 26.0894 21.4597 26.2028 21.3464C26.3685 21.1806 26.3772 21.0585 26.3772 18.9043V16.6366H26.9877C27.7029 16.6366 28.1216 16.4883 28.5489 16.0871C28.9763 15.6772 29.1682 15.2149 29.1682 14.5434C29.1682 13.8718 28.9763 13.4095 28.5489 12.9996C28.1216 12.5984 27.7029 12.4501 26.9877 12.4501H26.3772V10.1825C26.3772 8.0282 26.3685 7.90609 26.2028 7.74038C26.0894 7.627 25.915 7.56594 25.6882 7.56594C25.3829 7.56594 25.2783 7.627 24.816 8.08053ZM24.9817 14.5434V19.1572L24.4323 18.817C23.2374 18.067 21.493 17.4826 20.0888 17.3692L19.3998 17.3082V14.5434V11.7786L20.115 11.7088C21.5453 11.5867 23.438 10.95 24.502 10.2261C24.7462 10.0691 24.9468 9.92955 24.9643 9.92955C24.973 9.92082 24.9817 11.9966 24.9817 14.5434ZM18.0043 14.5434V17.3343H17.4199C15.7366 17.3343 14.786 16.8895 14.2016 15.8342C13.9748 15.4155 13.9487 15.2934 13.9487 14.5434C13.9487 13.8543 13.9836 13.6537 14.1493 13.3485C14.7511 12.2147 15.6145 11.7873 17.3327 11.7611L18.0043 11.7524V14.5434ZM27.293 13.9677C27.6157 14.1073 27.7465 14.3864 27.6506 14.7701C27.5808 15.0318 27.1535 15.2411 26.6825 15.2411H26.3772V14.5434V13.8456H26.6825C26.8569 13.8456 27.1273 13.898 27.293 13.9677ZM18.0043 20.4306C18.0043 22.3319 17.9345 22.6895 17.5333 22.7942C17.1496 22.8901 16.8705 22.7593 16.7309 22.4366C16.6437 22.2098 16.6088 21.7127 16.6088 20.4306V18.7298H17.3066H18.0043V20.4306Z" fill="white"></path><path d="M31.567 10.7579C31.1396 10.976 30.7297 11.2202 30.6773 11.2987C30.6163 11.3772 30.564 11.5865 30.564 11.7697C30.564 12.197 30.8082 12.45 31.2181 12.45C31.5844 12.45 33.2154 11.665 33.3026 11.4469C33.416 11.1504 33.3549 10.7056 33.1805 10.5312C32.9014 10.2521 32.4566 10.3131 31.567 10.7579Z" fill="white"></path><path d="M30.7384 14.0199C30.625 14.1333 30.564 14.3077 30.564 14.5432C30.564 15.1537 30.7384 15.241 31.9595 15.241C33.1805 15.241 33.3549 15.1537 33.3549 14.5432C33.3549 13.9327 33.1805 13.8455 31.9595 13.8455C31.0262 13.8455 30.8954 13.8629 30.7384 14.0199Z" fill="white"></path><path d="M6.91211 12.1646C6.07482 12.7752 2.57564 15.7816 2.28782 16.3572L2 16.9415V27.7566V38.5716L2.25293 39.0949C2.58436 39.7665 3.24722 40.4293 3.91879 40.7607L4.4421 41.0137H22.8887H41.3352L41.8586 40.7607C42.5301 40.4293 43.193 39.7665 43.5244 39.0949L43.7773 38.5716V27.7566V16.9415L43.4895 16.3572C43.2802 15.9385 43.0273 15.6158 42.5737 15.1885C41.3789 14.0721 39.0885 11.7983 38.6175 12.1646C38.4344 12.3042 38.171 12.7525 38.171 13.0577C38.171 13.4328 40.3497 15.2495 41.1172 15.9124C41.5533 16.2787 41.9022 16.6101 41.9022 16.6363C41.9022 16.6625 37.7593 20.2384 32.7007 24.5731C26.0634 30.2597 23.412 32.4925 23.1939 32.5448C23.0021 32.5972 22.7753 32.5972 22.5834 32.5448C22.3654 32.4925 19.7139 30.2597 13.0767 24.5731C8.01803 20.2384 3.87518 16.6625 3.87518 16.6363C3.87518 16.6101 4.23278 16.2787 4.66014 15.9124C5.42766 15.2495 7.80522 13.4328 7.80522 13.0577C7.80522 12.7525 7.98838 12.7507 7.80522 12.6112C7.49123 12.3583 7.31331 11.8681 6.91211 12.1646ZM9.34374 23.3608C12.597 26.1518 15.2571 28.463 15.2571 28.5066C15.2571 28.5415 12.6493 30.8092 9.45712 33.5478L3.65714 38.5192L3.52631 38.2401C3.41293 37.9959 3.39549 36.6528 3.36932 28.1229C3.3606 22.7154 3.36932 18.2934 3.38676 18.2934C3.40421 18.2934 6.09052 20.5785 9.34374 23.3608ZM42.408 29.8062C42.3819 36.8359 42.3644 37.9959 42.251 38.2401L42.1202 38.5192L36.3202 33.5391C33.128 30.8005 30.5202 28.5328 30.5202 28.4979C30.5202 28.463 33.1891 26.1518 36.451 23.3521L42.3819 18.2673L42.408 19.9593C42.4167 20.8925 42.4167 25.3232 42.408 29.8062ZM18.9639 31.6116C20.4291 32.8675 21.5281 33.7484 21.7984 33.8705C22.409 34.1583 23.3684 34.1583 23.9789 33.8705C24.2493 33.7484 25.3308 32.885 26.7699 31.6465C28.0694 30.5301 29.1684 29.5969 29.2294 29.5707C29.3253 29.5271 40.8555 39.3478 40.8555 39.4786C40.8555 39.5222 40.6724 39.5746 40.4543 39.6095C39.9223 39.6792 5.85503 39.6792 5.323 39.6095C5.09623 39.5746 4.93052 39.5048 4.94796 39.4612C4.99157 39.3304 16.3648 29.562 16.4782 29.5532C16.5305 29.5532 17.6469 30.4778 18.9639 31.6116Z" fill="#313141"></path><path d="M30.7383 16.8109C30.5638 16.9854 30.5028 17.4302 30.6162 17.7267C30.7034 17.9448 32.3344 18.7297 32.7007 18.7297C33.1019 18.7297 33.3548 18.4768 33.3548 18.0843C33.3548 17.9186 33.3286 17.718 33.3025 17.6395C33.2676 17.561 32.8577 17.3081 32.3867 17.0639C31.436 16.5929 31.0261 16.5231 30.7383 16.8109Z" fill="white"></path></svg>